STARTFONT 2.1
FONT jis.jis5200.24
SIZE 24 72 72
FONTBOUNDINGBOX 24 24 0 -3
STARTPROPERTIES 4
FONT_DESCENT 3
FONT_ASCENT 21
DEFAULT_CHAR 0
COPYRIGHT "Copyright (c) 1992 AT&T - All rights reserved."
ENDPROPERTIES
CHARS 216
STARTCHAR ch-0
ENCODING 0
SWIDTH 1000 0
DWIDTH 24 0
BBX 24 24 0 -3
BITMAP
000000
00000c
3ffffe
00300c
00300c
00300c
00300c
00300c
00300c
00300c
00300c
00300c
00300c
00600c
00600c
00600c
00c00c
00c018
018018
010018
020018
040030
1801f0
600060
ENDCHAR
STARTCHAR ch-3
ENCODING 3
SWIDTH 1000 0
DWIDTH 24 0
BBX 24 24 0 -3
BITMAP
000000
00000c
7ffffe
00300c
00300c
00300c
00300c
00300c
00300c
06300c
01b00c
00700c
00380c
006e0c
00670c
00c30c
00c31c
018018
010018
020038
040030
080070
3003e0
c000c0
ENDCHAR
STARTCHAR ch-4
ENCODING 4
SWIDTH 1000 0
DWIDTH 24 0
BBX 24 24 0 -3
BITMAP
000000
000030
3ffff8
003030
003030
083030
083030
043030
067030
026030
036070
016060
01e060
00c060
00e060
01b0e0
019cc0
030fc0
0303f0
0601ff
0c031e
180700
303e00
c00c00
ENDCHAR
STARTCHAR ch-6
ENCODING 6
SWIDTH 1000 0
DWIDTH 24 0
BBX 24 24 0 -3
BITMAP
010200
01c200
018200
018100
030100
030080
0200c0
060060
040038
08001f
17ffce
2060c6
c060c0
0060c0
0060c0
00c0c0
00c0c0
00c0c0
0180c0
0180c0
0301c0
060180
0c0f80
300300
ENDCHAR
STARTCHAR ch-7
ENCODING 7
SWIDTH 1000 0
DWIDTH 24 0
BBX 24 24 0 -3
BITMAP
0e0000
0c0006
0c7fff
0c0306
0c0306
0c2306
0c7306
0d8306
0e0306
0c0306
3c0306
cc0306
0c0306
0c0306
0c0306
0c4606
0c4606
0c660e
0fe40c
07cc0c
00081c
001018
0020f8
00c030
ENDCHAR
STARTCHAR ch-8
ENCODING 8
SWIDTH 1000 0
DWIDTH 24 0
BBX 24 24 0 -3
BITMAP
002007
003806
0030e6
0030c6
0030c6
0030c6
6070c6
1860c6
0c60c6
0660c6
0360c6
01c0c6
00c0c6
01e0c6
01b0c6
0338c6
0318c6
061c06
0c0c06
080c06
100006
200006
c0003e
00000c
ENDCHAR
STARTCHAR ch-10
ENCODING 10
SWIDTH 1000 0
DWIDTH 24 0
BBX 24 24 0 -3
BITMAP
00000e
00300c
7ff9cc
03018c
03018c
03018c
03018c
03018c
03018c
03198c
fffd8c
03018c
03018c
03018c
03018c
03018c
03018c
03000c
03000c
03000c
03000c
03000c
03007c
030018
ENDCHAR
STARTCHAR ch-11
ENCODING 11
SWIDTH 1000 0
DWIDTH 24 0
BBX 24 24 0 -3
BITMAP
00300e
00f80c
07c1cc
7f018c
03018c
03018c
03018c
03018c
03018c
03198c
fffd8c
03018c
03018c
03018c
03018c
03018c
07018c
06000c
06000c
0c000c
0c000c
18000c
30007c
c00018
ENDCHAR
STARTCHAR ch-14
ENCODING 14
SWIDTH 1000 0
DWIDTH 24 0
BBX 24 24 0 -3
BITMAP
080007
0e0006
0c0076
0c0666
0fff66
192666
192666
132666
336666
226666
464666
844666
0cc666
088e66
118c66
210c66
430c66
020c06
041c06
081806
301806
003806
01f03e
00600c
ENDCHAR
STARTCHAR ch-17
ENCODING 17
SWIDTH 1000 0
DWIDTH 24 0
BBX 24 24 0 -3
BITMAP
000007
001806
7ffce6
0c60c6
0c60c6
0c60c6
0c60c6
0c60c6
0c60c6
0c6cc6
fffec6
0c60c6
0c60c6
0c60c6
0c60c6
0c60c6
0c60c6
1860c6
186006
106006
306006
206006
40603e
80600c
ENDCHAR
STARTCHAR ch-20
ENCODING 20
SWIDTH 1000 0
DWIDTH 24 0
BBX 24 24 0 -3
BITMAP
03800e
03000c
0301cc
03018c
03198c
7ffd8c
03198c
03198c
03198c
03198c
03198c
03198c
ffff8c
06018c
07018c
06c18c
0e618c
0c300c
0c180c
181c0c
180c0c
300c0c
60007c
800018
ENDCHAR
STARTCHAR ch-23
ENCODING 23
SWIDTH 1000 0
DWIDTH 24 0
BBX 24 24 0 -3
BITMAP
00000e
00180c
7ffc0c
0601cc
06018c
06018c
04018c
0c318c
0ff98c
08318c
18318c
14318c
32618c
23618c
43418c
80c18c
00818c
01818c
03000c
02000c
04000c
08000c
10007c
600018
ENDCHAR
STARTCHAR ch-29
ENCODING 29
SWIDTH 1000 0
DWIDTH 24 0
BBX 24 24 0 -3
BITMAP
070000
060000
060000
060006
06dfff
ffe306
00c306
018306
018306
032306
063306
0e4306
170306
26c306
c66306
066306
06060e
06060c
06060c
06040c
060c1c
060818
0610f8
066030
ENDCHAR
STARTCHAR ch-36
ENCODING 36
SWIDTH 1000 0
DWIDTH 24 0
BBX 24 24 0 -3
BITMAP
038007
431006
231c06
3318e6
3310c6
3320c6
0300c6
0318c6
7ffcc6
0300c6
0300c6
0300c6
0300c6
030cc6
fffec6
0300c6
0300c6
030006
030006
030006
030006
030006
03003e
03000c
ENDCHAR
STARTCHAR ch-37
ENCODING 37
SWIDTH 1000 0
DWIDTH 24 0
BBX 24 24 0 -3
BITMAP
000007
203006
3ff8e6
3030c6
3030c6
3030c6
3030c6
3030c6
3ff0c6
3630c6
0600c6
0600c6
0630c6
07f8c6
0c30c6
0c30c6
0c30c6
083006
183006
103006
306006
206006
43e03e
80c00c
ENDCHAR
STARTCHAR ch-39
ENCODING 39
SWIDTH 1000 0
DWIDTH 24 0
BBX 24 24 0 -3
BITMAP
070000
060006
060fff
060186
066186
7ff186
060186
060186
060186
060186
063186
fff986
080186
0e0186
0c0386
0c0306
08830e
08430c
10620c
11b60c
fe341c
700818
4010f8
006030
ENDCHAR
STARTCHAR ch-41
ENCODING 41
SWIDTH 1000 0
DWIDTH 24 0
BBX 24 24 0 -3
BITMAP
00600e
03f00c
7f01cc
03018c
03018c
03018c
03318c
fff98c
07018c
07018c
0f818c
0f618c
0b318c
1b318c
13018c
33018c
23018c
43018c
83000c
03000c
03000c
03000c
03007c
030018
ENDCHAR
STARTCHAR ch-42
ENCODING 42
SWIDTH 1000 0
DWIDTH 24 0
BBX 24 24 0 -3
BITMAP
200c07
3ffe06
324c76
324c66
324c66
324c66
324c66
324c66
324c66
324c66
ffff66
324c66
324c66
324c66
324c66
324c66
324c66
324c06
324c06
324c06
324c06
324c06
303c3e
30180c
ENDCHAR
STARTCHAR ch-46
ENCODING 46
SWIDTH 1000 0
DWIDTH 24 0
BBX 24 24 0 -3
BITMAP
00300e
00f80c
07c1cc
7f018c
03018c
03018c
03018c
030d8c
ffff8c
03018c
03018c
03018c
03018c
23318c
3ff98c
30318c
30318c
30300c
30300c
30300c
30300c
30300c
3ff07c
303018
ENDCHAR
STARTCHAR ch-48
ENCODING 48
SWIDTH 1000 0
DWIDTH 24 0
BBX 24 24 0 -3
BITMAP
000007
001806
7ffc06
0400e6
0700c6
0640c6
0420c6
0830c6
7fd8c6
3c18c6
2000c6
0380c6
0300c6
0300c6
0318c6
7ffcc6
0300c6
030006
030006
031806
03e006
7f8006
3c003e
20000c
ENDCHAR
STARTCHAR ch-51
ENCODING 51
SWIDTH 1000 0
DWIDTH 24 0
BBX 24 24 0 -3
BITMAP
03800e
03000c
0301cc
030d8c
ffff8c
06418c
0c218c
08398c
101f8c
2fed8c
c0018c
00198c
7ffd8c
06018c
0e018c
0c318c
1ff98c
18300c
00300c
00700c
00600c
00e00c
07c07c
018018
ENDCHAR
STARTCHAR ch-54
ENCODING 54
SWIDTH 1000 0
DWIDTH 24 0
BBX 24 24 0 -3
BITMAP
03800e
23000c
3b01cc
33318c
3ff98c
63018c
43018c
83018c
03198c
fffd8c
03018c
03018c
43198c
7ffd8c
63198c
63198c
63198c
63198c
63180c
63180c
63780c
63300c
03007c
030018
ENDCHAR
STARTCHAR ch-55
ENCODING 55
SWIDTH 1000 0
DWIDTH 24 0
BBX 24 24 0 -3
BITMAP
200c07
3ffe06
300ce6
300cc6
300cc6
300cc6
3ffcc6
300cc6
3000c6
30e0c6
30c0c6
34c4c6
37fec6
34c4c6
34c4c6
34c4c6
24c4c6
24c406
64c406
44c406
44dc06
84cc06
00c03e
00c00c
ENDCHAR
STARTCHAR ch-56
ENCODING 56
SWIDTH 1000 0
DWIDTH 24 0
BBX 24 24 0 -3
BITMAP
001040
081c70
061860
0318c0
033880
003118
3ffffc
006400
006400
00c206
ffffff
018180
0300c0
060070
0c01bf
33ffde
c06186
006180
00c180
00c180
018180
030300
0c1f00
300600
ENDCHAR
STARTCHAR ch-57
ENCODING 57
SWIDTH 1000 0
DWIDTH 24 0
BBX 24 24 0 -3
BITMAP
00400e
30700c
0ce1cc
07c18c
03818c
06e18c
0c718c
30318c
c0018c
03818c
03018c
03198c
fffd8c
07018c
0f018c
0f818c
1b618c
1b318c
33300c
63000c
83000c
03000c
03007c
030018
ENDCHAR
STARTCHAR ch-58
ENCODING 58
SWIDTH 1000 0
DWIDTH 24 0
BBX 24 24 0 -3
BITMAP
01c007
018006
018ce6
fffec6
0180c6
0180c6
218cc6
3ffec6
318cc6
318cc6
318cc6
318cc6
31bcc6
3398c6
0380c6
07c0c6
05b0c6
0d98c6
099c06
198c06
318006
618006
81803e
01800c
ENDCHAR
STARTCHAR ch-59
ENCODING 59
SWIDTH 1000 0
DWIDTH 24 0
BBX 24 24 0 -3
BITMAP
038007
030006
0300e6
030cc6
fffec6
0200c6
0380c6
0320c6
2438c6
1870c6
0c60c6
0cc0c6
0190c6
031cc6
0638c6
0c30c6
1860c6
60c006
018006
034006
063006
0c1806
301c3e
c00c0c
ENDCHAR
STARTCHAR ch-67
ENCODING 67
SWIDTH 1000 0
DWIDTH 24 0
BBX 24 24 0 -3
BITMAP
204007
187006
0c6006
0c40e6
0098c6
fffcc6
0318c6
0318c6
2318c6
3ff8c6
3300c6
3300c6
330cc6
7ffec6
630cc6
670cc6
070cc6
0f1cc6
0b1806
137806
233006
c30006
03003e
03000c
ENDCHAR
STARTCHAR ch-68
ENCODING 68
SWIDTH 1000 0
DWIDTH 24 0
BBX 24 24 0 -3
BITMAP
00000e
00180c
fffdcc
00018c
22218c
33318c
66618c
44418c
88818c
44418c
66618c
33318c
33318c
00018c
00198c
fffd8c
06018c
06000c
06000c
06380c
07e00c
ff000c
78007c
400018
ENDCHAR
STARTCHAR ch-71
ENCODING 71
SWIDTH 1000 0
DWIDTH 24 0
BBX 24 24 0 -3
BITMAP
20300e
3ff80c
3031cc
30318c
30318c
30318c
3ff18c
30318c
30318c
30318c
30318c
3ff18c
30318c
30318c
30318c
30318c
30318c
3ff18c
10000c
1c800c
18600c
30300c
60187c
801818
ENDCHAR
STARTCHAR ch-74
ENCODING 74
SWIDTH 1000 0
DWIDTH 24 0
BBX 24 24 0 -3
BITMAP
039007
831c06
6318e6
3330c6
3320c6
0340c6
4318c6
7ffcc6
6018c6
6018c6
6018c6
7ff8c6
6018c6
6018c6
6018c6
7ff8c6
6018c6
601806
601806
601806
601806
601806
60f83e
60300c
ENDCHAR
STARTCHAR ch-75
ENCODING 75
SWIDTH 1000 0
DWIDTH 24 0
BBX 24 24 0 -3
BITMAP
03800e
03000c
0319cc
fffd8c
03018c
03018c
23318c
3ff98c
30318c
30318c
30318c
30318c
3ff18c
0cc18c
0cc18c
0cc00c
0cc00c
18c07c
18c01a
10c002
30c003
20ffff
407ffe
800000
ENDCHAR
STARTCHAR ch-76
ENCODING 76
SWIDTH 1000 0
DWIDTH 24 0
BBX 24 24 0 -3
BITMAP
01c007
018006
018ce6
fffec6
0180c6
0180c6
218cc6
3ffec6
318cc6
318cc6
318cc6
318cc6
3ffcc6
338cc6
0380c6
07c0c6
05b0c6
0d98c6
099c06
198c06
318006
618006
81803e
01800c
ENDCHAR
STARTCHAR ch-77
ENCODING 77
SWIDTH 1000 0
DWIDTH 24 0
BBX 24 24 0 -3
BITMAP
020100
0181c0
00c180
00c206
ffffff
000000
000000
10601c
1ff398
186318
186318
186318
1fe318
186318
186318
186318
1fe318
186318
186318
186018
186018
186018
19e0f8
18c030
ENDCHAR
STARTCHAR ch-79
ENCODING 79
SWIDTH 1000 0
DWIDTH 24 0
BBX 24 24 0 -3
BITMAP
008000
40e00c
30cffe
18c0cc
1980cc
0120cc
7ff4cc
18c4cc
18c2cc
18c2cc
18c38c
18d18c
fff98c
18c1cc
18c14c
18c368
18c338
38c238
30c61c
30c43f
20cc36
60c860
40d3e0
8020c0
ENDCHAR
STARTCHAR ch-84
ENCODING 84
SWIDTH 1000 0
DWIDTH 24 0
BBX 24 24 0 -3
BITMAP
103007
1ff806
1830e6
1830c6
1830c6
1ff0c6
1830c6
1830c6
1830c6
1ff0c6
0600c6
0600c6
0c0cc6
0ffec6
1a4cc6
124cc6
26ccc6
cc8c06
099806
111806
621806
043006
19f03e
00600c
ENDCHAR
STARTCHAR ch-86
ENCODING 86
SWIDTH 1000 0
DWIDTH 24 0
BBX 24 24 0 -3
BITMAP
038007
030006
0300e6
0318c6
7ffcc6
1040c6
0870c6
0c60c6
0c40c6
008cc6
fffec6
0000c6
0000c6
2030c6
3ff8c6
3030c6
3030c6
3030c6
303006
303006
303006
3ff006
30303e
30300c
ENDCHAR
STARTCHAR ch-91
ENCODING 91
SWIDTH 1000 0
DWIDTH 24 0
BBX 24 24 0 -3
BITMAP
400607
7fff06
600676
604666
687666
666666
624666
608666
7ffe66
610666
610666
692666
692666
692666
692666
692666
692666
692666
6fe606
682606
680606
600606
603e3e
600c0c
ENDCHAR
STARTCHAR ch-94
ENCODING 94
SWIDTH 1000 0
DWIDTH 24 0
BBX 24 24 0 -3
BITMAP
038007
030006
0318e6
7ffcc6
0300c6
0680c6
0660c6
0c30c6
3030c6
0006c6
ffffc6
0018c6
0018c6
2198c6
3f98c6
3198c6
3198c6
319806
3f9806
319806
301806
001806
00f83e
00300c
ENDCHAR
STARTCHAR ch-99
ENCODING 99
SWIDTH 1000 0
DWIDTH 24 0
BBX 24 24 0 -3
BITMAP
018007
018006
0360e6
0318c6
060cc6
0c06c6
1866c6
37f0c6
c180c6
218cc6
3ffec6
318cc6
318cc6
318cc6
318cc6
3ffcc6
318cc6
0340c6
033006
061806
0c1c06
180c06
300c3e
c0000c
ENDCHAR
STARTCHAR ch-100
ENCODING 100
SWIDTH 1000 0
DWIDTH 24 0
BBX 24 24 0 -3
BITMAP
038007
030006
030ce6
fffec6
1030c6
0830c6
0c60c6
06c0c6
0380c6
06e0c6
0c7ec6
383cc6
d830c6
1ff0c6
1830c6
1830c6
1830c6
1ff006
183006
303006
303006
203006
40303e
80300c
ENDCHAR
STARTCHAR ch-101
ENCODING 101
SWIDTH 1000 0
DWIDTH 24 0
BBX 24 24 0 -3
BITMAP
00c00e
3fe00c
00c1cc
00c18c
00c18c
3fc18c
00c18c
00c18c
00d98c
fffd8c
03018c
03118c
431d8c
33398c
1b218c
1b418c
03018c
03418c
0b300c
f3180c
63180c
43180c
1f007c
060018
ENDCHAR
STARTCHAR ch-105
ENCODING 105
SWIDTH 1000 0
DWIDTH 24 0
BBX 24 24 0 -3
BITMAP
003007
01f806
3f80e6
0180c6
0186c6
ffffc6
0180c6
0db0c6
09a4c6
f9aec6
09b0c6
09a0c6
39a2c6
e9bec6
499ec6
03c0c6
03b0c6
079806
0d8c06
198c06
318006
c18006
01803e
01800c
ENDCHAR
STARTCHAR ch-106
ENCODING 106
SWIDTH 1000 0
DWIDTH 24 0
BBX 24 24 0 -3
BITMAP
000080
0600e0
01c1c0
00c206
ffffff
000000
10601c
1ff398
186318
1fe318
186318
1fe318
186318
186018
19e0f8
18c030
00000c
7ffffe
00600c
00e01c
01c018
038038
0e01f0
700060
ENDCHAR
STARTCHAR ch-111
ENCODING 111
SWIDTH 1000 0
DWIDTH 24 0
BBX 24 24 0 -3
BITMAP
000c07
fffe06
000006
0000e6
1030c6
1ff8c6
1830c6
1830c6
1830c6
1ff0c6
1830c6
0000c6
400cc6
7ffec6
610cc6
610cc6
610cc6
7ffcc6
610c06
610c06
610c06
7ffc06
600c3e
600c0c
ENDCHAR
STARTCHAR ch-112
ENCODING 112
SWIDTH 1000 0
DWIDTH 24 0
BBX 24 24 0 -3
BITMAP
003007
01f806
3f80e6
0180c6
018cc6
7ffec6
1188c6
1188c6
1188c6
ffffc6
1188c6
1188c6
1188c6
7ffec6
0380c6
03c0c6
07b0c6
059806
0d8c06
198c06
318006
c18006
01803e
01800c
ENDCHAR
STARTCHAR ch-113
ENCODING 113
SWIDTH 1000 0
DWIDTH 24 0
BBX 24 24 0 -3
BITMAP
03000c
0307fe
0680cc
0660cc
0c30cc
1818cc
30d8cc
dfe2cc
0302cc
4319cc
7ffdcc
6318cc
6318cc
6318ec
6318ac
7ff9bc
63199c
06818f
06410e
0c6318
0c3218
183218
3004f8
c00830
ENDCHAR
STARTCHAR ch-114
ENCODING 114
SWIDTH 1000 0
DWIDTH 24 0
BBX 24 24 0 -3
BITMAP
038007
230006
230ce6
7ffec6
600cc6
c388c6
c310c6
3ff8c6
0300c6
0300c6
3ff8c6
0300c6
0304c6
fffec6
0000c6
2030c6
3ff8c6
303006
303006
303006
303006
3ff006
30303e
30300c
ENDCHAR
STARTCHAR ch-115
ENCODING 115
SWIDTH 1000 0
DWIDTH 24 0
BBX 24 24 0 -3
BITMAP
1c7007
186006
1864e6
fffec6
1860c6
1860c6
0300c6
0300c6
0680c6
0660c6
0c30c6
0818c6
17dcc6
200cc6
c000c6
1030c6
1ff8c6
183006
183006
183006
183006
183006
1ff03e
18300c
ENDCHAR
STARTCHAR ch-116
ENCODING 116
SWIDTH 1000 0
DWIDTH 24 0
BBX 24 24 0 -3
BITMAP
038007
731c06
6318e6
6318c6
6318c6
7ff8c6
0000c6
000cc6
fffec6
0000c6
0000c6
3ff0c6
3030c6
3030c6
3030c6
3ff0c6
0040c6
207006
186006
0c4006
0cf806
ff8006
7c003e
40000c
ENDCHAR
STARTCHAR ch-117
ENCODING 117
SWIDTH 1000 0
DWIDTH 24 0
BBX 24 24 0 -3
BITMAP
03000e
03000c
0681cc
06618c
0c318c
0bd98c
10198c
20018c
dff18c
18318c
18318c
1ff18c
18318c
18318c
1ff18c
10018c
30018c
3ff18c
2c300c
6c300c
4c300c
8c300c
0ff07c
0c3018
ENDCHAR
STARTCHAR ch-125
ENCODING 125
SWIDTH 1000 0
DWIDTH 24 0
BBX 24 24 0 -3
BITMAP
000c07
fffe06
0480e6
0480c6
4498c6
7ffcc6
6498c6
6498c6
6498c6
7ff8c6
6018c6
0000c6
3ff0c6
0000c6
000cc6
fffec6
0300c6
230006
3b2006
331806
630c06
430c06
9f003e
06000c
ENDCHAR
STARTCHAR ch-127
ENCODING 127
SWIDTH 1000 0
DWIDTH 24 0
BBX 24 24 0 -3
BITMAP
040807
430e06
318ce6
1998c6
1810c6
0020c6
3ffcc6
318cc6
318cc6
3ffcc6
318cc6
318cc6
3ffcc6
0180c6
0186c6
ffffc6
0380c6
07c006
07b006
0d9c06
198e06
318606
c1803e
01800c
ENDCHAR
STARTCHAR ch-131
ENCODING 131
SWIDTH 1000 0
DWIDTH 24 0
BBX 24 24 0 -3
BITMAP
038007
030006
3ff806
0318e6
0318c6
ffffc6
0318c6
0318c6
3ff8c6
0300c6
7ffcc6
0300c6
0300c6
fffec6
0000c6
3ff8c6
2108c6
3ff806
210806
3ff806
000006
000c06
fffe7e
00001c
ENDCHAR
STARTCHAR ch-135
ENCODING 135
SWIDTH 1000 0
DWIDTH 24 0
BBX 24 24 0 -3
BITMAP
01c007
018006
01f876
218266
3fff66
310666
31e866
3f0066
310466
30fc66
300066
37fe66
308066
31cc66
364e66
30e866
333066
2c6c66
60e606
61a606
462606
582006
81e03e
00c00c
ENDCHAR
STARTCHAR ch-136
ENCODING 136
SWIDTH 1000 0
DWIDTH 24 0
BBX 24 24 0 -3
BITMAP
106070
1ff060
186064
1867fe
186108
1fe18c
180088
180012
186fff
3ff060
2c6062
2c6fff
4c6060
8c6060
0fe060
0c6060
00000c
7ffffe
00600c
00e01c
01c018
038038
0e01f0
700060
ENDCHAR
STARTCHAR ch-137
ENCODING 137
SWIDTH 1000 0
DWIDTH 24 0
BBX 24 24 0 -3
BITMAP
020007
270406
3cfe06
2024e6
2424c6
2324c6
2524c6
785cc6
318cc6
2180c6
0360c6
0618c6
0c0cc6
1fecc6
3180c6
c180c6
3ff8c6
019006
119806
0d9006
05a006
7ffc06
3f003e
20000c
ENDCHAR
STARTCHAR ch-141
ENCODING 141
SWIDTH 1000 0
DWIDTH 24 0
BBX 24 24 0 -3
BITMAP
030007
030006
06c0e6
0630c6
0c1cc6
180ec6
3066c6
cff0c6
0000c6
0000c6
468cc6
7efec6
468cc6
468cc6
468cc6
7efcc6
0000c6
102006
1c3806
183006
366c06
224606
40863e
81000c
ENDCHAR
STARTCHAR ch-145
ENCODING 145
SWIDTH 1000 0
DWIDTH 24 0
BBX 24 24 0 -3
BITMAP
01c007
018006
018676
ffff66
044066
026666
fb5c66
299066
299266
69bf66
599166
818066
000066
301866
3ff866
301866
301866
301806
3ff806
301806
201806
601806
40183e
80180c
ENDCHAR
STARTCHAR ch-146
ENCODING 146
SWIDTH 1000 0
DWIDTH 24 0
BBX 24 24 0 -3
BITMAP
030006
0307ff
0680c6
0660c6
0c30c6
1818c6
30d8c6
6fe0c6
8000c6
0002c6
4d31c6
7df8c6
4d30e6
4d30e6
4d30b6
7df0b6
000086
208186
38e186
30c10e
2ca10c
65b30c
41127c
820418
ENDCHAR
STARTCHAR ch-148
ENCODING 148
SWIDTH 1000 0
DWIDTH 24 0
BBX 24 24 0 -3
BITMAP
03000c
0307fe
0680cc
0660cc
0c30cc
1818cc
30d8cc
6fe2cc
8002cc
0001cc
4d31cc
7df8cc
4d30cc
4d30ec
4d30ac
7df1bc
00019c
20818f
38e10e
30c318
2ca218
65b218
4114f8
820830
ENDCHAR
STARTCHAR ch-155
ENCODING 155
SWIDTH 1000 0
DWIDTH 24 0
BBX 24 24 0 -3
BITMAP
003800
003000
003000
003000
003000
003018
7ffffc
003018
003018
003018
003018
003018
003018
006018
006018
006018
00c018
00c018
018018
010038
020030
040070
1803e0
6000c0
ENDCHAR
STARTCHAR ch-159
ENCODING 159
SWIDTH 1000 0
DWIDTH 24 0
BBX 24 24 0 -3
BITMAP
000380
000300
000300
00c300
ffe300
0c0306
0c7fff
0c0306
0c0306
0c0306
0c0306
0c0306
0c0606
0c0606
0c0606
0cc606
0f0c0e
fc0c0c
70180c
40180c
00301c
006018
0180f8
060030
ENDCHAR
STARTCHAR ch-160
ENCODING 160
SWIDTH 1000 0
DWIDTH 24 0
BBX 24 24 0 -3
BITMAP
070000
060000
060000
060000
063106
fff9ff
063186
063186
063186
063186
063186
063186
063186
0c3186
0c3186
0c3186
0c3186
183186
183186
103186
3071fe
206186
47e186
81c000
ENDCHAR
STARTCHAR ch-163
ENCODING 163
SWIDTH 1000 0
DWIDTH 24 0
BBX 24 24 0 -3
BITMAP
001c00
001800
021860
039818
07180e
0e1887
1818e3
3079c0
c03380
000e00
003800
01e000
1f0000
e01800
001818
3ffffc
003018
006018
006018
00c038
018030
030070
0c03e0
f000c0
ENDCHAR
STARTCHAR ch-169
ENCODING 169
SWIDTH 1000 0
DWIDTH 24 0
BBX 24 24 0 -3
BITMAP
0001c0
20c180
3fe180
30c180
30c180
30c186
30dfff
3fc186
30c186
30c186
30c186
30c186
3fc186
30c186
30c306
30c306
30c306
30c60e
30f60c
3f8c0c
fc081c
701018
4020f8
00c030
ENDCHAR
STARTCHAR ch-170
ENCODING 170
SWIDTH 1000 0
DWIDTH 24 0
BBX 24 24 0 -3
BITMAP
070000
06000c
0637fe
fffa0c
0c3218
0c6130
0c6160
1bc0c0
18f1e0
01b33f
03061e
0c1806
306000
001c00
001818
7ffffc
003018
006018
006018
00c038
018030
030070
0c03e0
7000c0
ENDCHAR
STARTCHAR ch-171
ENCODING 171
SWIDTH 1000 0
DWIDTH 24 0
BBX 24 24 0 -3
BITMAP
0700e0
0600c0
0600c0
0600c0
0660c0
7ff0c6
060fff
0600c6
0600c6
0600c6
0600c6
0630c6
fff8c6
0800c6
0e00c6
0c0186
0c0186
088186
084106
10630c
11b20c
fe340c
70087c
403018
ENDCHAR
STARTCHAR ch-172
ENCODING 172
SWIDTH 1000 0
DWIDTH 24 0
BBX 24 24 0 -3
BITMAP
1000e0
1c00c0
1800c0
1800c0
1818c0
3ff8c6
301fff
2018c6
6198c6
7fd8c6
b198c6
3198c6
3198c6
3198c6
3198c6
3198c6
3f9886
31b986
003186
00310e
00730c
00620c
03e47c
00c818
ENDCHAR
STARTCHAR ch-173
ENCODING 173
SWIDTH 1000 0
DWIDTH 24 0
BBX 24 24 0 -3
BITMAP
0000e0
0060c0
fff0c0
0c60c0
0c60c0
1c60c6
186fff
1860c6
30e0c6
20c0c6
47c0c6
8180c6
0001c6
40c186
7fe186
60c186
60c18e
60c30c
60c30c
60c20c
60c61c
7fc418
60c8f8
601030
ENDCHAR
STARTCHAR ch-177
ENCODING 177
SWIDTH 1000 0
DWIDTH 24 0
BBX 24 24 0 -3
BITMAP
200ce0
3ffec0
3000c0
3000c0
3018c0
37fcc6
3103ff
3100c6
3100c6
3118c6
31fcc6
3118c6
3118c6
3118c6
3118c6
3118c6
331886
321986
221986
26390e
64330c
49f20c
50647c
800818
ENDCHAR
STARTCHAR ch-180
ENCODING 180
SWIDTH 1000 0
DWIDTH 24 0
BBX 24 24 0 -3
BITMAP
002010
08101c
061838
030c30
018c60
118040
100086
3fffff
300006
603804
603008
003030
1ffff8
003030
003030
006030
006030
00c030
00c030
018070
030060
0600e0
0c07c0
700180
ENDCHAR
STARTCHAR ch-181
ENCODING 181
SWIDTH 1000 0
DWIDTH 24 0
BBX 24 24 0 -3
BITMAP
003800
103080
0c30e0
0631c0
063100
003218
3ffffc
006400
006400
00c206
ffffff
018180
0338c0
023060
063038
0fffdf
1860ce
3060c6
c0c180
00c180
018180
030300
061f00
180600
ENDCHAR
STARTCHAR ch-185
ENCODING 185
SWIDTH 1000 0
DWIDTH 24 0
BBX 24 24 0 -3
BITMAP
0380e0
0300c0
0300c0
0318c0
fffcc0
0000c6
0847ff
0e30c6
0c18c6
1c18c6
1898c6
30e0c6
68c0c6
86c186
038186
018186
01c306
03630e
03720c
06360c
0c040c
180818
3010f8
c06030
ENDCHAR
STARTCHAR ch-188
ENCODING 188
SWIDTH 1000 0
DWIDTH 24 0
BBX 24 24 0 -3
BITMAP
0700e0
0600c0
0600c0
0630c0
fff8c0
0600c6
0607ff
0600c6
0600c6
0660c6
7ff0c6
0000c6
0001c6
000186
406186
7ff186
60618e
60630c
60630c
60620c
60661c
7fe418
6068f8
601030
ENDCHAR
STARTCHAR ch-190
ENCODING 190
SWIDTH 1000 0
DWIDTH 24 0
BBX 24 24 0 -3
BITMAP
0380e0
0300c0
0300c0
0318c0
fffcc0
0400c6
0707ff
0600c6
4880c6
30e0c6
19c0c6
1980c6
0300c6
0640c6
0c70c6
18e186
30c186
c18186
030106
06830c
0c420c
18620c
30647c
c01818
ENDCHAR
STARTCHAR ch-193
ENCODING 193
SWIDTH 1000 0
DWIDTH 24 0
BBX 24 24 0 -3
BITMAP
0000e0
0018c0
fffcc0
0000c0
2220c0
3330c6
6667ff
4440c6
8880c6
4440c6
6660c6
3330c6
3330c6
0000c6
0018c6
fffcc6
060086
060186
060186
06390e
07e30c
ff020c
78047c
400818
ENDCHAR
STARTCHAR ch-195
ENCODING 195
SWIDTH 1000 0
DWIDTH 24 0
BBX 24 24 0 -3
BITMAP
0380e0
0300c0
0318c0
fffcc0
0300c0
2300c6
231bff
7ffcc6
6018c6
c010c6
c060c6
3ff0c6
0040c6
0280c6
0300c6
0300c6
03f0c6
ff0186
7b0186
43010e
03030c
03020c
1f047c
061818
ENDCHAR
STARTCHAR ch-197
ENCODING 197
SWIDTH 1000 0
DWIDTH 24 0
BBX 24 24 0 -3
BITMAP
0380e0
0300c0
0318c0
fffcc0
0300c0
0300c6
431bff
7ffcc6
6318c6
6318c6
6318c6
6318c6
7ff8c6
6718c6
0700c6
0f80c6
0b6186
1b3186
131986
33190e
63030c
83020c
03047c
031818
ENDCHAR
STARTCHAR ch-199
ENCODING 199
SWIDTH 1000 0
DWIDTH 24 0
BBX 24 24 0 -3
BITMAP
000060
1ffff0
0001c0
004600
003800
101818
1ffffc
181818
181818
1ffff8
181818
181818
1ffff8
180018
003800
00300c
7ffffe
00300c
00600c
00600c
00c018
018018
0e01f0
f00060
ENDCHAR
STARTCHAR ch-201
ENCODING 201
SWIDTH 1000 0
DWIDTH 24 0
BBX 24 24 0 -3
BITMAP
100000
1c01c0
18c180
1fe180
10c180
31818c
211ffe
42018c
fff18c
62318c
62318c
62318c
62330c
7ff30c
01830c
11820c
1d861c
198418
1988f8
119032
318002
218003
41ffff
80fffe
ENDCHAR
STARTCHAR ch-205
ENCODING 205
SWIDTH 1000 0
DWIDTH 24 0
BBX 24 24 0 -3
BITMAP
0380e0
0300c0
0300c0
0318c0
fffcc0
0000c6
2033ff
3ff8c6
3030c6
3030c6
3030c6
3030c6
3ff0c6
3330c6
0300c6
2300c6
3b2086
331186
331986
63190e
431b0c
83020c
1f047c
060818
ENDCHAR
STARTCHAR ch-210
ENCODING 210
SWIDTH 1000 0
DWIDTH 24 0
BBX 24 24 0 -3
BITMAP
1dc0e0
1980c0
19b0c0
fff8c0
1980c0
1980c0
1f80c6
060fff
4660c6
7ff0c6
6660c6
6660c6
6660c6
6661c6
7fe186
666186
06018e
06630c
fff30c
06020c
06061c
060418
0608f8
061030
ENDCHAR
STARTCHAR ch-213
ENCODING 213
SWIDTH 1000 0
DWIDTH 24 0
BBX 24 24 0 -3
BITMAP
0060e0
03f0c0
7f00c0
0300c0
0318c0
fffcc6
0303ff
0300c6
7ff8c6
6318c6
6318c6
7ff8c6
6318c6
6318c6
7ff8c6
030186
030186
7ff986
03010e
03030c
03f20c
ff841c
7c08f8
403030
ENDCHAR
STARTCHAR ch-215
ENCODING 215
SWIDTH 1000 0
DWIDTH 24 0
BBX 24 24 0 -3
BITMAP
040060
07fff0
060060
060060
07ffe0
060060
060060
07ffe0
060060
000000
20c1c0
3fe180
30c186
30dfff
3fc186
30c186
30c386
3fc30e
30c30c
30c60c
30e61c
ff8c18
7818f8
406030
ENDCHAR
STARTCHAR ch-216
ENCODING 216
SWIDTH 1000 0
DWIDTH 24 0
BBX 24 24 0 -3
BITMAP
1c70e0
1860c0
1864c0
fffec0
1860c0
1860c6
1fe7ff
1860c6
1860c6
1fe0c6
1860c6
1860c6
1864c6
fffec6
66c0c6
66c0c6
64c186
6cf986
687986
700106
60030c
7ff20c
60047c
601818
ENDCHAR
STARTCHAR ch-217
ENCODING 217
SWIDTH 1000 0
DWIDTH 24 0
BBX 24 24 0 -3
BITMAP
000200
006380
7ff300
00c606
0087ff
090a18
061230
030160
0330c0
fff9e0
032338
07461f
0719c6
0f0180
0b018c
1b1ffe
13018c
33010c
23030c
43020c
83061c
030418
1f08f8
063030
ENDCHAR
STARTCHAR ch-221
ENCODING 221
SWIDTH 1000 0
DWIDTH 24 0
BBX 24 24 0 -3
BITMAP
2321c8
3f918e
33198c
331988
330190
333ffe
330340
3f0340
330626
337fff
330410
330818
33138c
3f230f
33c306
333ff8
330318
330318
330618
330618
230c18
630830
4f11f0
866060
ENDCHAR
STARTCHAR ch-222
ENCODING 222
SWIDTH 1000 0
DWIDTH 24 0
BBX 24 24 0 -3
BITMAP
0180c0
012088
09349c
0964b0
1b0d80
128940
066330
042218
280408
200006
7fffff
600006
c07004
c06008
006030
3ffff8
006030
00c030
00c030
018070
030060
0600e0
0c07c0
300180
ENDCHAR
STARTCHAR ch-223
ENCODING 223
SWIDTH 1000 0
DWIDTH 24 0
BBX 24 24 0 -3
BITMAP
00e380
00c306
ffffff
00c300
00c300
07ffe0
060060
060060
07ffe0
060060
060060
07ffe0
003000
006006
ffffff
018100
0330e0
0c303f
33ffce
c060c0
00c0c0
018180
060f80
180300
ENDCHAR
STARTCHAR ch-224
ENCODING 224
SWIDTH 1000 0
DWIDTH 24 0
BBX 24 24 0 -3
BITMAP
0408e0
fffcc0
4488c0
64c8c0
2448c0
0c18c6
346bff
e5c8c6
4488c6
0008c6
0300c6
06e0c6
0c38c6
311cc6
c38cc6
0640c6
18e186
619186
06398e
38730c
00e30c
03861c
0e0cf8
703030
ENDCHAR
STARTCHAR ch-226
ENCODING 226
SWIDTH 1000 0
DWIDTH 24 0
BBX 24 24 0 -3
BITMAP
0201c0
020180
3fe180
020198
020ffc
7ff198
0c8198
189518
62731a
02019a
3fe2ca
0204ca
03d806
fe0007
603803
003030
1ffff8
003030
006030
006030
00c030
018060
0603e0
3800c0
ENDCHAR
STARTCHAR ch-227
ENCODING 227
SWIDTH 1000 0
DWIDTH 24 0
BBX 24 24 0 -3
BITMAP
0380e0
0300c0
7ff8c0
0300c0
3ff0c0
0300c6
0303ff
fffcc6
0000c6
3ff0c6
3030c6
3030c6
3ff0c6
3030c6
3030c6
3ff0c6
303186
303186
3ff186
10810e
1c610c
18330c
30327c
c00418
ENDCHAR
STARTCHAR ch-228
ENCODING 228
SWIDTH 1000 0
DWIDTH 24 0
BBX 24 24 0 -3
BITMAP
0ee0e0
0cc0c0
0cccc0
fffec0
0cc0c0
0cc0c0
2030c6
3ffbff
3330c6
3330c6
3330c6
3ff0c6
3300c6
0310c6
7ff986
030186
031186
7ff90c
03030c
03020c
03761c
ff8418
7808f8
403030
ENDCHAR
STARTCHAR ch-230
ENCODING 230
SWIDTH 1000 0
DWIDTH 24 0
BBX 24 24 0 -3
BITMAP
0810e0
861cc0
6318c0
3330c0
3020c0
0040c6
7ffbff
6318c6
6318c6
7ff8c6
6318c6
6318c6
7ff8c6
0300c6
030cc6
fffec6
070186
0f8186
0f6186
1b310e
33390c
631b0c
83027c
030418
ENDCHAR
STARTCHAR ch-231
ENCODING 231
SWIDTH 1000 0
DWIDTH 24 0
BBX 24 24 0 -3
BITMAP
1000e0
1860c0
1ff0c0
3300c0
2300c0
4618c6
ffffff
0440c6
0c60c6
1880c6
1ff8c6
3180c6
7180c6
b180c6
3ff0c6
3180c6
318086
318186
3ff186
318106
31830c
31820c
3ff47c
300818
ENDCHAR
STARTCHAR ch-242
ENCODING 242
SWIDTH 1000 0
DWIDTH 24 0
BBX 24 24 0 -3
BITMAP
00e0e0
07f0c0
7e00c0
0200c0
fff8c0
0200c6
3fefff
2220c6
2220c6
3fe0c6
222086
222186
3fe186
020106
7ff30c
02020c
fff47c
7c0818
400000
090820
088618
30c30e
e0c387
c0c183
ENDCHAR
STARTCHAR ch-243
ENCODING 243
SWIDTH 1000 0
DWIDTH 24 0
BBX 24 24 0 -3
BITMAP
0060e0
03f0c0
7f00c0
0318c0
fffcc0
0300c6
7ffbff
6318c6
6318c6
7ff8c6
6318c6
6318c6
7ff8c6
0300c6
7ff8c6
0300c6
030186
fff986
7f0186
00410e
29330c
6d920c
c4847c
c00818
ENDCHAR
STARTCHAR ch-245
ENCODING 245
SWIDTH 1000 0
DWIDTH 24 0
BBX 24 24 0 -3
BITMAP
400c70
7ffe60
622060
622060
7ffc60
622066
6ff9ff
688866
688866
6ff866
688866
688866
6ff866
608066
708c66
5ffe66
588c66
588cc6
58acc6
5fecce
9b2c8c
180d8c
183d7c
181a18
ENDCHAR
STARTCHAR ch-248
ENCODING 248
SWIDTH 1000 0
DWIDTH 24 0
BBX 24 24 0 -3
BITMAP
1c70e0
1860c0
fffcc0
1860c0
1860c0
7cf8c6
448bff
4488c6
7cf8c6
1100c6
1dc0c6
1990c6
3ff8c6
3100c6
7120c6
bff186
310186
312186
3ff10e
31030c
31020c
31161c
3ffcf8
300830
ENDCHAR
STARTCHAR ch-249
ENCODING 249
SWIDTH 1000 0
DWIDTH 24 0
BBX 24 24 0 -3
BITMAP
020000
038000
030000
030000
06000c
07fffe
0c000c
0c000c
18000c
10000c
20000c
c0000c
00000c
00000c
00000c
00001c
000018
000018
000038
000030
000070
0000e0
0007c0
000180
ENDCHAR
STARTCHAR ch-250
ENCODING 250
SWIDTH 1000 0
DWIDTH 24 0
BBX 24 24 0 -3
BITMAP
020000
038000
030000
070000
06000c
0ffffe
0c000c
18000c
10000c
22000c
41800c
80e00c
00700c
00380c
00180c
00180c
00001c
000018
000018
000038
000030
000070
0007e0
0000c0
ENDCHAR
STARTCHAR ch-254
ENCODING 254
SWIDTH 1000 0
DWIDTH 24 0
BBX 24 24 0 -3
BITMAP
040000
070000
060000
06000c
0ffffe
0c000c
08000c
18400c
10700c
20600c
40600c
80c00c
00c80c
00840c
01860c
01030c
01030c
023d8c
3fc18c
1c0198
100018
000038
0003f0
0000e0
ENDCHAR
STARTCHAR ch-255
ENCODING 255
SWIDTH 1000 0
DWIDTH 24 0
BBX 24 24 0 -3
BITMAP
020000
038000
030000
030000
06000c
07fffe
0c318c
0c318c
18618c
30630c
60c30c
80c30c
01860c
01860c
030c0c
060c1c
0c1818
183018
606038
00c030
018070
0600e0
1807c0
000180
ENDCHAR
STARTCHAR ch-257
ENCODING 257
SWIDTH 1000 0
DWIDTH 24 0
BBX 24 24 0 -3
BITMAP
020000
038000
030000
03000c
07fffe
060c0c
0d0c0c
0d0c0c
18980c
30980c
60580c
80700c
00301c
007818
006c18
00c618
0183b0
0301f0
06007f
0c006e
3000c0
c001c0
001f80
000700
ENDCHAR
STARTCHAR ch-258
ENCODING 258
SWIDTH 1000 0
DWIDTH 24 0
BBX 24 24 0 -3
BITMAP
020000
038000
030000
03000c
07fffe
06000c
0c000c
18000c
17000c
260c0c
461e0c
86380c
06600c
07800c
06000c
06020c
06020c
06031c
07ff18
03fe18
000038
000070
0003e0
0000c0
ENDCHAR
STARTCHAR ch-261
ENCODING 261
SWIDTH 1000 0
DWIDTH 24 0
BBX 24 24 0 -3
BITMAP
020000
038000
030000
060030
07fff8
0c0030
080030
100c30
3ffe30
400c30
800c30
000c30
080c30
0ffc30
0c0c70
0c0060
0c03e0
0c00c0
0c0004
0c0004
0c0004
0c0006
0ffffe
07fffc
ENDCHAR
STARTCHAR ch-262
ENCODING 262
SWIDTH 1000 0
DWIDTH 24 0
BBX 24 24 0 -3
BITMAP
020000
038000
030000
030000
06000c
07fffe
0c318c
0c318c
18618c
32630c
61c30c
80e30c
01b60c
019e0c
030c0c
060e1c
0c1b18
183398
6061b8
00c030
018070
0600e0
1807c0
000180
ENDCHAR
STARTCHAR ch-264
ENCODING 264
SWIDTH 1000 0
DWIDTH 24 0
BBX 24 24 0 -3
BITMAP
020000
038000
030000
070000
06000c
0ffffe
0c000c
18080c
300e0c
6e0dcc
8d998c
0c598c
0c318c
0c718c
0c598c
0c8d8c
0d0d9c
0c0198
0fff98
0c01b8
0c0030
000070
0003e0
0000c0
ENDCHAR
STARTCHAR ch-269
ENCODING 269
SWIDTH 1000 0
DWIDTH 24 0
BBX 24 24 0 -3
BITMAP
080000
0e0000
0c0006
1fffff
180206
307186
206086
7fffe6
806006
106186
1fffc6
186186
186186
186186
1fff86
186186
186186
186186
1fff86
186186
18618e
18618c
186fbc
186318
ENDCHAR
STARTCHAR ch-271
ENCODING 271
SWIDTH 1000 0
DWIDTH 24 0
BBX 24 24 0 -3
BITMAP
070200
060380
060300
063306
fffbff
0c0206
0d0606
18c466
106ff6
2f3066
c03066
00c066
7fe466
0c07e6
18060e
18c60c
3fe63c
30c618
00c600
01c602
018602
038603
1f07ff
0603fe
ENDCHAR
STARTCHAR ch-272
ENCODING 272
SWIDTH 1000 0
DWIDTH 24 0
BBX 24 24 0 -3
BITMAP
080000
0e0000
0c000c
1ffffe
18000c
30018c
3fffcc
40000c
80000c
07fe0c
06060c
06060c
07fe0c
00000c
1fff8c
18618c
18618c
1fff8c
18618c
18619c
1fff98
180018
0000f8
000030
ENDCHAR
STARTCHAR ch-277
ENCODING 277
SWIDTH 1000 0
DWIDTH 24 0
BBX 24 24 0 -3
BITMAP
070000
060000
060000
060000
060030
060078
0600e0
0601c0
060380
060600
061c00
063000
06e000
078000
3e0000
060000
060000
060004
060004
060004
060006
07fffe
03fffc
000000
ENDCHAR
STARTCHAR ch-278
ENCODING 278
SWIDTH 1000 0
DWIDTH 24 0
BBX 24 24 0 -3
BITMAP
010e00
01cc00
018c00
038c00
030c08
030c0e
060c1c
060c18
0e0c30
0e0c60
160cc0
260d00
460e00
860c00
060c00
060c00
060c00
060c00
060c02
060c02
060c03
060e03
060fff
0607fe
ENDCHAR
STARTCHAR ch-279
ENCODING 279
SWIDTH 1000 0
DWIDTH 24 0
BBX 24 24 0 -3
BITMAP
01c700
018600
018600
018600
018606
01860f
01861c
ff8670
018780
018600
018600
018600
018600
018600
018600
038600
1d8600
f98602
618602
418602
018603
0187ff
0183fe
018000
ENDCHAR
STARTCHAR ch-281
ENCODING 281
SWIDTH 1000 0
DWIDTH 24 0
BBX 24 24 0 -3
BITMAP
206000
3ff380
306300
306300
3fe308
30630e
30631c
306338
3fe360
000380
003300
fffb00
030304
030304
233304
3bfb06
3303fe
3301fc
330000
330000
2b0000
67ffff
41fffe
800000
ENDCHAR
STARTCHAR ch-282
ENCODING 282
SWIDTH 1000 0
DWIDTH 24 0
BBX 24 24 0 -3
BITMAP
20000c
3ffffe
300000
300000
300000
300000
300000
300000
300000
300000
300000
300000
300000
300000
300000
300000
300000
300000
300000
300000
300000
300006
3fffff
300000
ENDCHAR
STARTCHAR ch-285
ENCODING 285
SWIDTH 1000 0
DWIDTH 24 0
BBX 24 24 0 -3
BITMAP
000000
20000c
3ffffe
300000
300e00
300c00
310c30
31fff8
318c30
318c30
318c30
318c30
318c30
318c30
318c30
318df0
318c60
300c00
300c00
300c00
300006
3fffff
300000
300000
ENDCHAR
STARTCHAR ch-288
ENCODING 288
SWIDTH 1000 0
DWIDTH 24 0
BBX 24 24 0 -3
BITMAP
000000
20000c
3ffffe
300000
300060
3087f0
30fe00
30c000
30c00c
30fffe
30c180
30c180
30c180
30c180
30c180
308180
318180
310180
320180
300180
300006
3fffff
300000
300000
ENDCHAR
STARTCHAR ch-289
ENCODING 289
SWIDTH 1000 0
DWIDTH 24 0
BBX 24 24 0 -3
BITMAP
000000
20000c
3ffffe
300000
300000
300030
33fff8
300c00
300c00
300c00
300c60
31fff0
300c00
300c00
300c00
300c00
300c18
37fffc
300000
300000
300006
3fffff
300000
300000
ENDCHAR
STARTCHAR ch-291
ENCODING 291
SWIDTH 1000 0
DWIDTH 24 0
BBX 24 24 0 -3
BITMAP
20000c
3ffffe
300000
300000
310018
31fffc
318618
318618
318618
31fff8
318618
318618
318618
318618
31fff8
318618
300600
300600
300600
300600
300600
300006
3fffff
300000
ENDCHAR
STARTCHAR ch-298
ENCODING 298
SWIDTH 1000 0
DWIDTH 24 0
BBX 24 24 0 -3
BITMAP
20000c
3ffffe
300000
303380
303300
303318
37f3fc
303300
303300
303330
33f3f8
303300
303300
303300
37f30c
3323fe
326300
304300
308300
310300
300000
300006
3fffff
300000
ENDCHAR
STARTCHAR ch-303
ENCODING 303
SWIDTH 1000 0
DWIDTH 24 0
BBX 24 24 0 -3
BITMAP
40000c
7ffffe
600000
640840
630e70
618ce0
619888
681ffc
64b880
66d880
669890
609ff8
619880
611880
6f1890
671ff8
631880
631880
631884
639ffe
619800
600006
7fffff
600000
ENDCHAR
STARTCHAR ch-305
ENCODING 305
SWIDTH 1000 0
DWIDTH 24 0
BBX 24 24 0 -3
BITMAP
20000c
3ffffe
300000
300c00
31ffe0
310c20
310c20
31ffe0
300c0c
3ffffe
300000
30ffc0
308040
30ffc0
308040
30ffc0
308040
30ffc0
302000
30f1e0
338070
300006
3fffff
300000
ENDCHAR
STARTCHAR ch-307
ENCODING 307
SWIDTH 1000 0
DWIDTH 24 0
BBX 24 24 0 -3
BITMAP
40000c
7ffffe
600000
600c00
601c00
603a00
607180
60c0f0
63003e
6c7f8c
600000
600000
63f3f0
623230
623230
63f3f0
608080
60c0c0
61b180
631370
6c0c18
600006
7fffff
600000
ENDCHAR
STARTCHAR ch-312
ENCODING 312
SWIDTH 1000 0
DWIDTH 24 0
BBX 24 24 0 -3
BITMAP
000000
000006
ffffff
300000
300000
300000
300000
300000
300000
300000
300000
300000
300000
300000
300000
300000
300000
300000
300000
300000
380000
3ffffe
1ffffe
000000
ENDCHAR
STARTCHAR ch-313
ENCODING 313
SWIDTH 1000 0
DWIDTH 24 0
BBX 24 24 0 -3
BITMAP
000000
20000c
3ffffe
306300
306300
306300
306300
306300
306300
306300
30c300
30c308
308308
31830c
3103fc
3201f8
340000
300000
300000
300000
300006
3fffff
300000
300000
ENDCHAR
STARTCHAR ch-314
ENCODING 314
SWIDTH 1000 0
DWIDTH 24 0
BBX 24 24 0 -3
BITMAP
000000
20000c
3ffffe
300000
300040
300070
318060
3060e0
3030c0
301980
300f00
300600
300700
300d80
3018c0
3030e0
306070
30c030
330030
300000
300006
3fffff
300000
300000
ENDCHAR
STARTCHAR ch-315
ENCODING 315
SWIDTH 1000 0
DWIDTH 24 0
BBX 24 24 0 -3
BITMAP
20000c
3ffffe
308000
30e000
30c000
30c060
30fff0
318c00
310c00
320c00
300c18
37fffc
300c00
301a00
301980
3030c0
303060
306030
30c038
330018
300000
300006
3fffff
300000
ENDCHAR
STARTCHAR ch-319
ENCODING 319
SWIDTH 1000 0
DWIDTH 24 0
BBX 24 24 0 -3
BITMAP
40000c
7ffffe
600000
60e380
60c300
67fff0
60c300
60c300
603800
603018
6ffffc
606000
604000
60ffe0
61e060
616060
626060
646060
687fe0
606060
600000
600006
7fffff
600000
ENDCHAR
STARTCHAR ch-320
ENCODING 320
SWIDTH 1000 0
DWIDTH 24 0
BBX 24 24 0 -3
BITMAP
40000c
7ffffe
600000
6080c0
60ffe0
60c0c0
60c0c0
60c0c0
60ffc0
60c0c0
600000
643218
67fbfc
663318
663318
663318
663318
663318
67f3f8
663318
600000
600006
7fffff
600000
ENDCHAR
STARTCHAR ch-321
ENCODING 321
SWIDTH 1000 0
DWIDTH 24 0
BBX 24 24 0 -3
BITMAP
001c00
001800
001800
001800
001800
001800
001800
001800
001800
001806
ffffff
001800
001800
001800
001800
001800
001800
001800
001800
001800
001800
001800
001800
001800
ENDCHAR
STARTCHAR ch-323
ENCODING 323
SWIDTH 1000 0
DWIDTH 24 0
BBX 24 24 0 -3
BITMAP
000060
0003f0
001f00
01f800
3e1800
001800
001800
001800
001800
001806
ffffff
001800
001800
001800
001800
001800
001800
001800
001800
001800
001800
001800
001800
001800
ENDCHAR
STARTCHAR ch-325
ENCODING 325
SWIDTH 1000 0
DWIDTH 24 0
BBX 24 24 0 -3
BITMAP
0e1c38
0c1830
0c1830
0c1830
0c1830
0c1830
0c1830
0c1830
0c1830
0c1836
ffffff
0c1830
0c1830
0c1830
0c1830
0c1830
0c1830
1c1830
181830
181830
301830
301830
601830
801830
ENDCHAR
STARTCHAR ch-326
ENCODING 326
SWIDTH 1000 0
DWIDTH 24 0
BBX 24 24 0 -3
BITMAP
007000
006000
006000
006180
3fffc0
00c180
00c180
01c182
018182
038182
070183
0e01ff
3800fe
c01c00
001800
001800
001806
ffffff
001800
001800
001800
001800
001800
001800
ENDCHAR
STARTCHAR ch-327
ENCODING 327
SWIDTH 1000 0
DWIDTH 24 0
BBX 24 24 0 -3
BITMAP
0001c0
003180
00f980
07c180
798180
018180
018180
018180
018180
018186
ffffff
018180
018180
018180
018180
030180
030180
030180
060180
060180
0c0180
180180
600180
000180
ENDCHAR
STARTCHAR ch-328
ENCODING 328
SWIDTH 1000 0
DWIDTH 24 0
BBX 24 24 0 -3
BITMAP
020000
038000
030000
030000
060030
07fff8
0c1800
081800
101800
201800
001800
001806
ffffff
001800
001800
001800
001800
001800
001800
001800
001800
001800
001800
001800
ENDCHAR
STARTCHAR ch-329
ENCODING 329
SWIDTH 1000 0
DWIDTH 24 0
BBX 24 24 0 -3
BITMAP
001c00
001800
001800
001818
3ffffc
001800
001800
0398e0
0318c0
0318c0
0300c0
0300c6
ffffff
0300c0
0300c0
0300c0
0300c0
0300c0
0300c0
0600c0
0600c0
0c00c0
1800c0
6000c0
ENDCHAR
STARTCHAR ch-330
ENCODING 330
SWIDTH 1000 0
DWIDTH 24 0
BBX 24 24 0 -3
BITMAP
001c00
101820
0c1838
061830
071860
031840
031880
001918
3ffffc
001800
001800
001800
001800
001806
ffffff
001800
001800
001800
001800
001800
001800
001800
001800
001800
ENDCHAR
STARTCHAR ch-333
ENCODING 333
SWIDTH 1000 0
DWIDTH 24 0
BBX 24 24 0 -3
BITMAP
000000
00180e
fffc0c
00180c
00180c
00180c
00180c
00180c
00180c
00180c
20180c
3ffffc
30180c
301800
301800
301800
301800
301800
301800
301800
301806
301fff
301800
000000
ENDCHAR
STARTCHAR ch-337
ENCODING 337
SWIDTH 1000 0
DWIDTH 24 0
BBX 24 24 0 -3
BITMAP
004000
007000
086030
0ffff8
0c1830
0c1830
0c1830
0ffff0
0c1830
0c1830
0c1830
0ffff0
0c0030
020e00
038c00
030c00
040c06
ffffff
000c00
000c00
000c00
000c00
000c00
000c00
ENDCHAR
STARTCHAR ch-338
ENCODING 338
SWIDTH 1000 0
DWIDTH 24 0
BBX 24 24 0 -3
BITMAP
001c00
001800
001800
00180c
7ffffe
020100
0381c0
030180
068340
044230
086418
106818
600000
001c00
001806
ffffff
001800
001800
001800
001800
001800
001800
001800
001800
ENDCHAR
STARTCHAR ch-339
ENCODING 339
SWIDTH 1000 0
DWIDTH 24 0
BBX 24 24 0 -3
BITMAP
001c00
001800
001830
001ff8
001800
001800
081830
0ffff8
0c0030
0c0030
0ffff0
0c0030
0c0030
0c0030
0ffff0
0c1830
001800
001806
ffffff
001800
001800
001800
001800
001800
ENDCHAR
STARTCHAR ch-340
ENCODING 340
SWIDTH 1000 0
DWIDTH 24 0
BBX 24 24 0 -3
BITMAP
1c0380
180300
180318
187ffc
180618
190618
ff8418
180c30
180830
1811f0
186060
180000
186060
186666
1bffff
186666
186666
186666
184646
18c6c6
188c8c
188c8c
193d3c
1a1a18
ENDCHAR
STARTCHAR ch-343
ENCODING 343
SWIDTH 1000 0
DWIDTH 24 0
BBX 24 24 0 -3
BITMAP
001c00
001800
001806
ffffff
001800
001800
101818
1ffffc
180018
188218
186318
186618
180418
19ff98
181818
181818
181898
1bffd8
181818
181818
181818
181818
1818f8
180030
ENDCHAR
STARTCHAR ch-344
ENCODING 344
SWIDTH 1000 0
DWIDTH 24 0
BBX 24 24 0 -3
BITMAP
004040
083070
061860
0318c0
030080
080130
0ffff8
0c1830
0c1830
0c1830
0ffff0
0c1830
0c1830
0c1830
0ffff0
0c1830
001800
001806
ffffff
001800
001800
001800
001800
001800
ENDCHAR
STARTCHAR ch-346
ENCODING 346
SWIDTH 1000 0
DWIDTH 24 0
BBX 24 24 0 -3
BITMAP
1c03a0
180330
180316
19ffff
180300
184318
1a7ffc
ff6318
186318
187ff8
186318
186318
187ff8
186018
180000
180066
19ffff
180060
182060
181860
180c60
180c60
1801e0
1800c0
ENDCHAR
STARTCHAR ch-348
ENCODING 348
SWIDTH 1000 0
DWIDTH 24 0
BBX 24 24 0 -3
BITMAP
00e000
00c000
00c000
00c000
00c000
00c000
00c000
00c000
00f000
00cc00
00c300
00c1c0
00c0e0
00c070
00c030
00c000
00c000
00c000
00c000
00c000
00c000
00c000
00c000
00c000
ENDCHAR
STARTCHAR ch-350
ENCODING 350
SWIDTH 1000 0
DWIDTH 24 0
BBX 24 24 0 -3
BITMAP
001c00
001800
001800
001800
001806
ffffff
001800
001800
001800
001800
001e00
0019c0
001870
001838
001818
001800
001800
001800
001800
001800
001800
001800
001800
001800
ENDCHAR
STARTCHAR ch-352
ENCODING 352
SWIDTH 1000 0
DWIDTH 24 0
BBX 24 24 0 -3
BITMAP
001c00
001800
001800
001800
001800
001818
001ffc
001800
001800
001800
001800
001800
081830
0ffff8
0c0030
0c0030
0c0030
0c0030
0c0030
0c0030
0c0030
0ffff0
0c0030
0c0030
ENDCHAR
STARTCHAR ch-358
ENCODING 358
SWIDTH 1000 0
DWIDTH 24 0
BBX 24 24 0 -3
BITMAP
0380e0
0300c0
0300c0
0330c0
7ff8c0
0300c0
0300c0
0300c0
0318e0
fffcd8
0000cc
0000c6
0380c7
0300c3
0330c0
7ff8c0
0300c0
0300c0
0300c0
0300c0
03f8c0
ff80c0
7800c0
4000c0
ENDCHAR
STARTCHAR ch-361
ENCODING 361
SWIDTH 1000 0
DWIDTH 24 0
BBX 24 24 0 -3
BITMAP
000000
010060
01fff0
018060
018060
018060
018060
018060
018060
018060
018060
018060
018060
018060
018060
018060
0187e0
0181c0
018000
018000
018000
018000
018000
018000
ENDCHAR
STARTCHAR ch-366
ENCODING 366
SWIDTH 1000 0
DWIDTH 24 0
BBX 24 24 0 -3
BITMAP
000070
0003f8
107f80
1fe000
180000
180000
180006
1fffff
180000
180000
190030
19fff8
198030
198030
198030
198030
1981f0
198060
318004
318004
218004
618006
41fffe
80fffc
ENDCHAR
STARTCHAR ch-367
ENCODING 367
SWIDTH 1000 0
DWIDTH 24 0
BBX 24 24 0 -3
BITMAP
006000
00f000
03820c
2c03fe
30830c
30e30c
30c30c
30c30c
30c30c
30c30c
30c30c
30c30c
30c30c
30c30c
30c30c
37c30c
fcc30c
70c30c
41837c
018318
030300
060300
0c0300
300300
ENDCHAR
STARTCHAR ch-368
ENCODING 368
SWIDTH 1000 0
DWIDTH 24 0
BBX 24 24 0 -3
BITMAP
006000
00f000
238406
3c07ff
300606
300606
300606
300606
300606
30c606
3fe606
300606
300606
300606
300606
300606
300606
306606
3ff67e
30061c
300600
000600
000600
000600
ENDCHAR
STARTCHAR ch-369
ENCODING 369
SWIDTH 1000 0
DWIDTH 24 0
BBX 24 24 0 -3
BITMAP
010000
01c000
038180
03ffc0
060300
0c0600
180400
300806
cfffff
0c0000
0c0000
0c4060
0c7ff0
0c6060
0c6060
0c6060
186060
1863e0
1060c2
306002
206002
406003
807fff
003ffe
ENDCHAR
STARTCHAR ch-371
ENCODING 371
SWIDTH 1000 0
DWIDTH 24 0
BBX 24 24 0 -3
BITMAP
000000
20620c
3ff3fe
30630c
30630c
30630c
30630c
3fe30c
30630c
30630c
30630c
30630c
3fe30c
30630c
30030c
30830c
30430c
30630c
33b30c
fc337c
703318
400300
000300
000300
ENDCHAR
STARTCHAR ch-372
ENCODING 372
SWIDTH 1000 0
DWIDTH 24 0
BBX 24 24 0 -3
BITMAP
038000
030206
0303ff
030306
033306
7ffb06
030306
030306
030306
030306
031b06
ffff06
040306
070306
060306
060306
0c4306
0c2306
083306
11db3e
fe1b0c
701b00
400300
000300
ENDCHAR
STARTCHAR ch-373
ENCODING 373
SWIDTH 1000 0
DWIDTH 24 0
BBX 24 24 0 -3
BITMAP
006000
00f20c
1383fe
1e030c
18730c
18630c
18630c
1c638c
1a634c
1b636c
19632c
19632c
18630c
18630c
18630c
18630c
1e630c
f8c30c
60c30c
41837c
018318
030300
060300
180300
ENDCHAR
STARTCHAR ch-375
ENCODING 375
SWIDTH 1000 0
DWIDTH 24 0
BBX 24 24 0 -3
BITMAP
003800
103080
0c30e0
0630c0
063080
003118
3ffffc
006400
006400
00c206
ffffff
018180
0180c0
030060
07ffb8
0d819f
19818e
318186
c18f80
018310
018010
018018
01fff8
00fff0
ENDCHAR
STARTCHAR ch-376
ENCODING 376
SWIDTH 1000 0
DWIDTH 24 0
BBX 24 24 0 -3
BITMAP
100000
1c0206
1833ff
3ffb06
330306
630306
430306
830306
031b06
ffff06
030306
030306
030306
3b3306
33fb06
330306
330306
330306
33333e
33c30c
ff0300
780300
400300
000300
ENDCHAR
STARTCHAR ch-379
ENCODING 379
SWIDTH 1000 0
DWIDTH 24 0
BBX 24 24 0 -3
BITMAP
080000
0e8106
0c61ff
183186
103186
200186
430186
030186
068186
066186
0c3186
183986
101986
200186
506186
9ff186
186186
186186
1861be
18618c
186180
1fe180
186180
180180
ENDCHAR
STARTCHAR ch-383
ENCODING 383
SWIDTH 1000 0
DWIDTH 24 0
BBX 24 24 0 -3
BITMAP
018000
27c646
3c7f7f
306666
336666
326666
326666
327e66
326666
326666
326666
326666
327e66
326666
326066
366866
fa6466
626666
466b66
05f37e
0ce36c
188060
300060
c00060
ENDCHAR
STARTCHAR ch-386
ENCODING 386
SWIDTH 1000 0
DWIDTH 24 0
BBX 24 24 0 -3
BITMAP
100006
1fffff
180000
180000
180000
180000
180000
180000
180000
180000
180000
180000
180000
180000
180000
180000
380000
300000
300000
300000
200000
600000
400000
800000
ENDCHAR
STARTCHAR ch-388
ENCODING 388
SWIDTH 1000 0
DWIDTH 24 0
BBX 24 24 0 -3
BITMAP
000000
10000c
1ffffe
180000
180000
188060
18fff0
18c060
18c060
18c060
18c060
18c060
18c060
18c060
18c060
18c3e0
18c0c0
18c002
30c002
30c002
20c003
40ffff
807ffe
000000
ENDCHAR
STARTCHAR ch-406
ENCODING 406
SWIDTH 1000 0
DWIDTH 24 0
BBX 24 24 0 -3
BITMAP
200006
3fffff
300000
300000
30e808
30c61c
30c218
30c030
3ffe64
30c0ce
30c10c
30c018
30f830
31f062
31b187
31b00e
31b01c
213030
6330c0
623302
463002
443003
883fff
001ffe
ENDCHAR
STARTCHAR ch-408
ENCODING 408
SWIDTH 1000 0
DWIDTH 24 0
BBX 24 24 0 -3
BITMAP
000000
10000c
1ffffe
180000
180000
19fff8
198618
198618
198618
19fff8
198618
198618
198618
19fff8
180600
300600
300618
33fffc
200600
600600
400600
800606
0fffff
000000
ENDCHAR
STARTCHAR ch-410
ENCODING 410
SWIDTH 1000 0
DWIDTH 24 0
BBX 24 24 0 -3
BITMAP
100006
1fffff
180000
188030
18fff8
18c030
18c030
18fff0
18c030
18c030
18fff0
180000
180030
19fff8
180060
3000c0
300500
300606
27ffff
600600
400600
800600
003e00
000c00
ENDCHAR
STARTCHAR ch-415
ENCODING 415
SWIDTH 1000 0
DWIDTH 24 0
BBX 24 24 0 -3
BITMAP
000000
100006
1fffff
180600
180400
188830
18fff8
18c030
18c030
18c030
18fff0
18c030
18c030
18c030
18fff0
18c630
300600
308640
30e630
21c618
61860c
43060e
8c3e06
000c00
ENDCHAR
STARTCHAR ch-416
ENCODING 416
SWIDTH 1000 0
DWIDTH 24 0
BBX 24 24 0 -3
BITMAP
200006
3fffff
300000
300000
32180e
33fcec
3318cc
3318cc
3318cc
33f8cc
3318cc
3318cc
3318cc
33f8cc
3318cc
3318cc
3318cc
23f8cc
60000c
62200c
43980c
430c0c
860c7c
080018
ENDCHAR
STARTCHAR ch-421
ENCODING 421
SWIDTH 1000 0
DWIDTH 24 0
BBX 24 24 0 -3
BITMAP
200006
3fffff
300000
341080
321ce0
3318c0
3310c0
302086
3ffdff
30c106
30c104
34ca68
34c860
34c860
34c860
34c860
37f8d0
24c8d0
60c0d8
608088
41818c
41010f
820206
0c0c06
ENDCHAR
STARTCHAR ch-422
ENCODING 422
SWIDTH 1000 0
DWIDTH 24 0
BBX 24 24 0 -3
BITMAP
200006
3fffff
300000
30000c
37fffe
300c00
300800
30fff0
30c030
30fff0
30c030
30c030
30fff0
30c030
30c030
30fff0
303000
207fe0
60e0c0
619180
460b00
401fc0
80f1ff
07801e
ENDCHAR
STARTCHAR ch-424
ENCODING 424
SWIDTH 1000 0
DWIDTH 24 0
BBX 24 24 0 -3
BITMAP
200006
3fffff
300000
300000
300c1c
37fe18
300018
300018
32181a
33fdff
331818
331818
331918
331898
33f8d8
3010d8
321c18
311818
219018
619018
402618
4ff818
8780f8
040030
ENDCHAR
STARTCHAR ch-425
ENCODING 425
SWIDTH 1000 0
DWIDTH 24 0
BBX 24 24 0 -3
BITMAP
200006
3fffff
300000
343000
37f80c
3637fe
363330
363330
37f330
363330
363332
363fff
37f060
363060
3600f8
3600f0
3640f0
2621b0
2631b2
665932
5f9b33
4e023f
88041e
001800
ENDCHAR
STARTCHAR ch-429
ENCODING 429
SWIDTH 1000 0
DWIDTH 24 0
BBX 24 24 0 -3
BITMAP
200006
3fffff
300000
341870
37fc68
361866
37f866
361860
361866
37fbff
300060
341860
37fc60
361850
3618d0
37f8d0
3618d0
2618d8
67f888
66198c
46190c
46190f
867a06
063406
ENDCHAR
STARTCHAR ch-430
ENCODING 430
SWIDTH 1000 0
DWIDTH 24 0
BBX 24 24 0 -3
BITMAP
200006
3fffff
300000
33180c
32113e
3211f0
3ffd80
321180
321180
33f186
3211ff
321198
33f198
321198
321198
321198
3ffd98
200198
600198
646118
473b18
461a18
8c0418
100818
ENDCHAR
STARTCHAR ch-432
ENCODING 432
SWIDTH 1000 0
DWIDTH 24 0
BBX 24 24 0 -3
BITMAP
200006
3fffff
300000
30e080
34c8e0
34ccc0
36c8c0
36d080
30c086
30c1ff
37f918
340918
340a98
35e898
3528d0
352850
352870
252820
65e870
640850
4408d8
44088f
84790e
043206
ENDCHAR
STARTCHAR ch-435
ENCODING 435
SWIDTH 1000 0
DWIDTH 24 0
BBX 24 24 0 -3
BITMAP
084020
063038
031870
2318c6
3fffff
300080
3010e0
37f8c0
30c0c0
30c886
3ffdff
321118
321318
33f298
321498
321098
33f050
221070
621020
621070
5ff058
4f10cc
88118f
001606
ENDCHAR
STARTCHAR ch-438
ENCODING 438
SWIDTH 1000 0
DWIDTH 24 0
BBX 24 24 0 -3
BITMAP
000000
001000
001c00
001800
001800
003800
003000
003000
006000
006000
00c000
00c000
018000
018000
030080
020040
060020
040030
080018
1007f8
7ffc1c
3f000c
30000c
000000
ENDCHAR
STARTCHAR ch-443
ENCODING 443
SWIDTH 1000 0
DWIDTH 24 0
BBX 24 24 0 -3
BITMAP
001c00
001800
001800
001800
001818
1ffffc
001800
001800
001800
001800
001800
001806
ffffff
004000
007000
006000
00e100
00c0c0
018060
010030
0203d8
3ffc1c
1f800c
10000c
ENDCHAR
STARTCHAR ch-450
ENCODING 450
SWIDTH 1000 0
DWIDTH 24 0
BBX 24 24 0 -3
BITMAP
004000
007100
0060c0
008070
3fffb8
1f8018
103800
003006
ffffff
00e100
01c080
039060
061c38
0c381f
30720e
c1c380
0e0720
001c38
007070
0780e0
000380
001e00
00f000
1f0000
ENDCHAR
STARTCHAR ch-451
ENCODING 451
SWIDTH 1000 0
DWIDTH 24 0
BBX 24 24 0 -3
BITMAP
004000
007100
0060c0
008070
3fffb8
1f8018
080040
0c0060
091848
119884
ffb5fe
706306
00c180
0188e0
071c78
1c391f
e0e386
038720
1c1c70
0070e0
078380
000e00
007800
038000
ENDCHAR
STARTCHAR ch-456
ENCODING 456
SWIDTH 1000 0
DWIDTH 24 0
BBX 24 24 0 -3
BITMAP
000000
000030
1ffff8
010060
010060
0080c0
0080c0
008180
004180
004300
002300
003600
001c00
000800
001e00
003700
006380
00c1c0
0180e0
070078
0c003f
30001e
c00004
000000
ENDCHAR
STARTCHAR ch-457
ENCODING 457
SWIDTH 1000 0
DWIDTH 24 0
BBX 24 24 0 -3
BITMAP
000000
000018
7ffffc
020018
022038
021830
010c30
010c60
010c60
0080c0
00c0c0
004180
006180
003300
001e00
000c00
001e00
003700
006380
00c1e0
0180f8
06007f
18003e
e0000c
ENDCHAR
STARTCHAR ch-458
ENCODING 458
SWIDTH 1000 0
DWIDTH 24 0
BBX 24 24 0 -3
BITMAP
000000
000180
3fffc0
018180
018180
018300
018300
034300
034630
0347f8
032630
032030
063060
061060
0618c0
0408c0
0c0d80
080700
180780
100dc0
2038f0
40e07f
83803e
1c000e
ENDCHAR
STARTCHAR ch-459
ENCODING 459
SWIDTH 1000 0
DWIDTH 24 0
BBX 24 24 0 -3
BITMAP
007000
006000
006000
006000
006006
ffffff
006000
006000
0060c0
007fe0
00e0c0
00d0c0
00d0c0
019180
018980
030b00
030700
060600
0c0f00
181980
3030e0
c0c07f
03001e
0c0006
ENDCHAR
STARTCHAR ch-460
ENCODING 460
SWIDTH 1000 0
DWIDTH 24 0
BBX 24 24 0 -3
BITMAP
000000
00c00c
7feffe
00c40c
00c40c
00c40c
00c418
018418
318218
0d8230
070230
030360
038160
02c1c0
026080
0671c0
043140
0c0360
080630
180438
10081c
20101f
40600e
818004
ENDCHAR
STARTCHAR ch-461
ENCODING 461
SWIDTH 1000 0
DWIDTH 24 0
BBX 24 24 0 -3
BITMAP
000000
10000c
1ffffe
180000
180000
180000
180000
180060
1ffff0
188060
1880c0
1840c0
184180
182180
183300
181e00
300c00
301e00
203300
6061c0
41c0f0
83007f
0c001e
300006
ENDCHAR
STARTCHAR ch-462
ENCODING 462
SWIDTH 1000 0
DWIDTH 24 0
BBX 24 24 0 -3
BITMAP
01c000
01800c
39bffe
31840c
31840c
31840c
31840c
318418
318218
318218
318230
318330
318160
318160
3181c0
338080
3d81c0
f18160
618370
418638
018c1f
01980e
01e006
018000
ENDCHAR
STARTCHAR ch-468
ENCODING 468
SWIDTH 1000 0
DWIDTH 24 0
BBX 24 24 0 -3
BITMAP
038000
03000c
030ffe
03020c
03320c
03fa0c
03020c
030218
030118
031918
fffd18
0301b0
0300b0
2340a0
3b20e0
333040
3318e0
2318a0
6319b0
430318
83021c
03040f
1f080e
063006
ENDCHAR
STARTCHAR ch-470
ENCODING 470
SWIDTH 1000 0
DWIDTH 24 0
BBX 24 24 0 -3
BITMAP
001800
fffc00
18c00c
18dffe
18c40c
18c40c
1fc40c
18c20c
18c218
18c218
18c318
18c110
1fc1b0
18c0a0
18c0e0
18c040
18c0e0
18c0a0
1fc1b0
fcc118
70c21f
40c40e
00d806
00c000
ENDCHAR
STARTCHAR ch-471
ENCODING 471
SWIDTH 1000 0
DWIDTH 24 0
BBX 24 24 0 -3
BITMAP
000038
000ffc
3ffe40
004070
083060
0618c0
231880
230106
3fffff
600006
600004
c000c8
cfffe0
0100c0
010180
008300
00c600
006c00
003800
006e00
00c7c0
0381fe
0e007c
70000c
ENDCHAR
STARTCHAR ch-473
ENCODING 473
SWIDTH 1000 0
DWIDTH 24 0
BBX 24 24 0 -3
BITMAP
030000
03000c
068ffe
06620c
0c320c
081a0c
181a0c
106118
3ff118
430118
830110
033190
7ff8b0
0300a0
2300e0
3b4040
3330e0
3318a0
2319b0
631918
43021c
83040f
1f080e
063006
ENDCHAR
STARTCHAR ch-475
ENCODING 475
SWIDTH 1000 0
DWIDTH 24 0
BBX 24 24 0 -3
BITMAP
070000
060806
464fff
267c00
366c00
364c00
368c00
060c0c
066ffe
fffd0c
060d0c
060d18
066d98
078c90
fe0cb0
7618e0
461840
0610e0
0c30a0
0c21b0
184318
10861f
210c0e
c03006
ENDCHAR
STARTCHAR ch-479
ENCODING 479
SWIDTH 1000 0
DWIDTH 24 0
BBX 24 24 0 -3
BITMAP
001c00
009800
13d818
1e19fc
181818
181818
181818
1f99f8
181818
181818
181818
1ffff8
181818
001800
001830
3ffff8
0200e0
0101c0
008380
006e00
003800
00ef00
0783ff
f8007e
ENDCHAR
STARTCHAR ch-481
ENCODING 481
SWIDTH 1000 0
DWIDTH 24 0
BBX 24 24 0 -3
BITMAP
030000
03e006
2307ff
231906
7ffd06
601106
c0208c
dff08c
00008c
13208c
1b18c8
36c858
463058
0c1850
1ff830
386020
dfe070
186050
1860d8
1fe098
18618c
18610f
1fe206
186c06
ENDCHAR
STARTCHAR ch-482
ENCODING 482
SWIDTH 1000 0
DWIDTH 24 0
BBX 24 24 0 -3
BITMAP
107720
0c6638
066630
066646
ffffff
010180
008100
00c200
7ffffe
001000
1ffff8
001000
ffffff
186000
18600c
1feffe
18610c
186108
1fe098
1860d0
186060
ffe0b8
78631f
406c06
ENDCHAR
STARTCHAR ch-483
ENCODING 483
SWIDTH 1000 0
DWIDTH 24 0
BBX 24 24 0 -3
BITMAP
000000
000000
100018
1ffffc
180018
180018
180018
180018
180018
180018
180018
180018
180018
180018
180018
180018
180018
180018
180018
180018
1ffff8
180018
180018
000000
ENDCHAR
STARTCHAR ch-484
ENCODING 484
SWIDTH 1000 0
DWIDTH 24 0
BBX 24 24 0 -3
BITMAP
001c00
001800
001800
001800
001800
001806
ffffff
001800
001800
001800
001800
001800
081830
0ffff8
0c0030
0c0030
0c0030
0c0030
0c0030
0c0030
0c0030
0ffff0
0c0030
0c0030
ENDCHAR
STARTCHAR ch-485
ENCODING 485
SWIDTH 1000 0
DWIDTH 24 0
BBX 24 24 0 -3
BITMAP
020000
038000
030000
070000
06000c
0ffffe
0c000c
18000c
10000c
220c0c
43fe0c
830c0c
030c0c
030c0c
030c0c
030c0c
030c0c
03fc0c
030c1c
030018
000018
000038
0001f0
000060
ENDCHAR
STARTCHAR ch-488
ENCODING 488
SWIDTH 1000 0
DWIDTH 24 0
BBX 24 24 0 -3
BITMAP
000000
000006
41bfff
7fc306
618306
618306
618306
618306
618306
618306
618306
618306
618706
618606
618606
7f8606
618e0e
600c0c
001c0c
00180c
00301c
006018
00c0f8
030030
ENDCHAR
STARTCHAR ch-489
ENCODING 489
SWIDTH 1000 0
DWIDTH 24 0
BBX 24 24 0 -3
BITMAP
000000
40c406
7fe7ff
60c606
60c606
60c606
60c606
60c606
60c606
60c606
60c606
60c606
60c606
60c606
60c606
60c606
7fc606
60c606
60c63e
60060c
000600
000600
000600
000600
ENDCHAR
STARTCHAR ch-490
ENCODING 490
SWIDTH 1000 0
DWIDTH 24 0
BBX 24 24 0 -3
BITMAP
000000
080030
0ffff8
0c0030
0c0030
0c0030
0c0030
0c0030
0c0030
0c0030
0c0030
0c0030
0c0030
0ffff0
0c0030
000000
010100
01c0c0
038070
030038
06001c
0c000e
18000e
600006
ENDCHAR
STARTCHAR ch-491
ENCODING 491
SWIDTH 1000 0
DWIDTH 24 0
BBX 24 24 0 -3
BITMAP
000038
000030
430030
7f8e30
630c30
630c30
630c30
630c30
630c30
630c30
630c30
630c30
630c30
630c30
630c36
630c3f
7f0cf0
630f30
607030
000030
000030
000030
000030
000030
ENDCHAR
STARTCHAR ch-492
ENCODING 492
SWIDTH 1000 0
DWIDTH 24 0
BBX 24 24 0 -3
BITMAP
000000
000018
7ffffc
006018
006018
00c018
00c038
018030
030070
0603e0
1800c0
e00000
080030
0ffff8
0c0030
0c0030
0c0030
0c0030
0c0030
0c0030
0c0030
0ffff0
0c0030
0c0030
ENDCHAR
STARTCHAR ch-493
ENCODING 493
SWIDTH 1000 0
DWIDTH 24 0
BBX 24 24 0 -3
BITMAP
000180
000080
001080
431c80
7f9880
631880
631880
6318c0
631840
631840
631840
631840
633840
633060
633020
633020
7f6030
636030
604018
00c018
00801c
01000f
02000e
040006
ENDCHAR
STARTCHAR ch-494
ENCODING 494
SWIDTH 1000 0
DWIDTH 24 0
BBX 24 24 0 -3
BITMAP
000000
000006
41bfff
7fc0c0
6180c0
6180c0
6180c0
6180c0
6180c0
6180c0
6180c0
6180c0
6180c0
6180c0
6180c0
7f80c0
6180c0
6000c0
0000c0
0000c0
0000c0
0000c0
0007c0
000180
ENDCHAR
STARTCHAR ch-495
ENCODING 495
SWIDTH 1000 0
DWIDTH 24 0
BBX 24 24 0 -3
BITMAP
000000
000006
ffffff
000060
000060
000060
083060
0ff860
0c3060
0c3060
0c3060
0c3060
0c3060
0c3060
0ff060
0c3060
0c3060
000060
000060
000060
000060
000060
0007e0
0001c0
ENDCHAR
STARTCHAR ch-496
ENCODING 496
SWIDTH 1000 0
DWIDTH 24 0
BBX 24 24 0 -3
BITMAP
004000
007000
006000
00e000
00c080
00c040
018020
010030
0207d8
7ffc1c
3f000c
20000c
000000
080030
0ffff8
0c0030
0c0030
0c0030
0c0030
0c0030
0c0030
0ffff0
0c0030
0c0030
ENDCHAR
STARTCHAR ch-497
ENCODING 497
SWIDTH 1000 0
DWIDTH 24 0
BBX 24 24 0 -3
BITMAP
000e00
000c00
000c00
430c00
7f8c00
630c00
630c00
630c0c
630c1e
630c60
630d80
630e00
631c00
636c00
630c00
630c00
630c00
7f0c00
630c02
600c02
000c02
000c03
000fff
0007fe
ENDCHAR
STARTCHAR ch-498
ENCODING 498
SWIDTH 1000 0
DWIDTH 24 0
BBX 24 24 0 -3
BITMAP
001c00
001800
001800
20180c
3ffffe
30180c
30180c
30180c
30180c
30180c
30180c
3ffffc
30180c
001800
021800
019800
00d000
007000
007800
00ce00
0183c0
0701ff
1c007e
e0000e
ENDCHAR
STARTCHAR ch-499
ENCODING 499
SWIDTH 1000 0
DWIDTH 24 0
BBX 24 24 0 -3
BITMAP
007000
006000
006000
006000
006000
006006
ffffff
00c000
00c000
018000
018000
030000
060030
0ffff8
1b0030
330030
c30030
030030
030030
030030
030030
030030
03fff0
030030
ENDCHAR
STARTCHAR ch-502
ENCODING 502
SWIDTH 1000 0
DWIDTH 24 0
BBX 24 24 0 -3
BITMAP
0001c0
000180
000180
430180
7f8180
630180
630180
630180
630186
637fff
630180
630180
630180
630180
630180
7f0180
630180
630180
600180
000180
000180
000180
000180
000180
ENDCHAR
STARTCHAR ch-503
ENCODING 503
SWIDTH 1000 0
DWIDTH 24 0
BBX 24 24 0 -3
BITMAP
040060
07fff0
060060
060060
060060
060060
07ffe0
060060
000000
000006
ffffff
018000
018000
030060
03fff0
060060
060060
000060
0000c0
0000c0
000180
000380
001f00
000600
ENDCHAR
STARTCHAR ch-504
ENCODING 504
SWIDTH 1000 0
DWIDTH 24 0
BBX 24 24 0 -3
BITMAP
00000c
fffffe
00000c
00000c
00030c
3fff8c
00000c
00000c
040c0c
07fe0c
060c0c
060c0c
060c0c
060c0c
060c0c
060c0c
07fc0c
060c0c
06000c
00000c
00000c
00000c
00007c
000018
ENDCHAR
STARTCHAR ch-506
ENCODING 506
SWIDTH 1000 0
DWIDTH 24 0
BBX 24 24 0 -3
BITMAP
000180
007fc0
000100
430100
7f8100
630100
630300
630300
630380
630380
630680
630680
6306c0
630e40
630c40
630c60
7f1820
631830
603030
003018
00601c
00c00f
01800e
060006
ENDCHAR
ENDFONT
